# xmcd
# Track frame offsets:
# 150
# 14856
# 30939
# 46167
# 61270
# 72403
# 89596
# 107618
# 123320
# 137009
#
# Disc length: 2055 seconds
# Revision: 0
# Processed by: cddbd v1.5.2PL0 Copyright (c) Steve Scherf et al.
# Submitted via: VisiTrax 2.11.3.279 - For more info visit www.synapsa.com
#
DISCID=8508050a
DTITLE=Herndon, Ty - Lies I Told Myself
DYEAR=2013
DGENRE=Country
TTITLE0=Beatifull Love Song
TTITLE1=Sugar
TTITLE2=I Can"t
TTITLE3=Lies I Told Myself
TTITLE4=Even When She's Gone
TTITLE5=Slow Moving Memory
TTITLE6=I Am The Man
TTITLE7=Whatever This Day Wants To Give Us
TTITLE8=I"m in Love With You
TTITLE9=Love Wins
EXTD=
EXTT0=
EXTT1=
EXTT2=
EXTT3=
EXTT4=
EXTT5=
EXTT6=
EXTT7=
EXTT8=
EXTT9=
PLAYORDER=
